<svg xmlns="http://www.w3.org/2000/svg" viewBox="0 0 640 640"><defs><style>.cls-1{fill:#3d4040;}.cls-2{fill:#555959;}</style></defs><g id="Layer_2" data-name="Layer 2"><g id="Artworks"><rect class="cls-1" width="640" height="640"/><path id="House" class="cls-2" d="M249.36,195.66l-18.65-4.91a1.34,1.34,0,0,0-1.56.77l-3.25,7.74-.56-1.12a.78.78,0,0,0-1.05-.33L221,199.45a.78.78,0,0,0-.39,1l2.59,5.26-1.49,3.56a1.2,1.2,0,0,0,1.71,1.5l1.83-.9,2.67,5.42c2.66,5.39,9.44,7.48,15.16,4.66l12.1-6-7.48-15.18,1.84-.9A1.21,1.21,0,0,0,249.36,195.66Zm3.47,17.24a.19.19,0,0,1-.09.24l-7.69,3.78a4.07,4.07,0,1,1-3.56-7.24.19.19,0,0,0,.09-.24,4.28,4.28,0,1,1,7.68-3.79Z"/><path id="House-2" data-name="House" class="cls-2" d="M72,57.31,64.58,39.52A1.36,1.36,0,0,0,63,38.75l-8.12,2.14.56-1.12a.79.79,0,0,0-.39-1l-3.32-1.64a.78.78,0,0,0-1.05.33L48.1,42.67l-3.74,1a1.21,1.21,0,0,0-.15,2.28l1.83.9-2.67,5.42c-2.66,5.39-.18,12,5.53,14.87l12.1,6,7.49-15.17,1.83.9A1.2,1.2,0,0,0,72,57.31ZM60.48,70.55a.19.19,0,0,1-.25.08l-7.68-3.79a4.07,4.07,0,1,1,3.57-7.24.19.19,0,0,0,.25-.08,4.28,4.28,0,1,1,7.68,3.79Z"/><path id="House-3" data-name="House" class="cls-2" d="M233.77,385l-19.28-.39a1.34,1.34,0,0,0-1.34,1.11L211.81,394l-.8-1a.8.8,0,0,0-1.11-.07l-2.84,2.37a.78.78,0,0,0-.13,1.1l3.75,4.5-.62,3.81a1.21,1.21,0,0,0,2,1.06l1.57-1.31,3.87,4.64c3.85,4.62,10.94,5.05,15.83,1l10.36-8.63-10.83-13,1.57-1.31A1.21,1.21,0,0,0,233.77,385Zm7.42,15.94a.18.18,0,0,1,0,.25l-6.58,5.49a4.07,4.07,0,1,1-5.17-6.21.18.18,0,0,0,0-.25,4.28,4.28,0,1,1,6.58-5.48Z"/><path id="House-4" data-name="House" class="cls-2" d="M375.24,263.46l-8.43-17.34a1.36,1.36,0,0,0-1.61-.69l-8,2.58.48-1.14a.78.78,0,0,0-.44-1l-3.4-1.45a.79.79,0,0,0-1,.38l-2.29,5.39-3.68,1.19a1.21,1.21,0,0,0,0,2.28l1.88.8L346.34,260c-2.36,5.53.48,12,6.35,14.54l12.4,5.28,6.64-15.57,1.88.81A1.21,1.21,0,0,0,375.24,263.46Zm-10.81,13.87a.18.18,0,0,1-.24.09l-7.88-3.36c-2.32-1-3.52-3.48-2.64-5.52a4.36,4.36,0,0,1,5.81-1.91.18.18,0,0,0,.24-.09,4.28,4.28,0,1,1,7.88,3.36Z"/><path id="House-5" data-name="House" class="cls-2" d="M582.12,59.36,563.36,54.9a1.34,1.34,0,0,0-1.54.81l-3.07,7.81-.57-1.1a.79.79,0,0,0-1.07-.3l-3.27,1.71a.79.79,0,0,0-.37,1l2.72,5.19-1.41,3.59a1.21,1.21,0,0,0,1.75,1.47l1.81-.95,2.8,5.36c2.79,5.32,9.62,7.24,15.27,4.29l12-6.25-7.84-15,1.81-.95A1.2,1.2,0,0,0,582.12,59.36ZM586,76.51a.19.19,0,0,1-.08.24l-7.59,4a4.08,4.08,0,1,1-3.75-7.16.18.18,0,0,0,.09-.24,4.28,4.28,0,1,1,7.59-4Z"/><path id="House-6" data-name="House" class="cls-2" d="M120,248.28l-7.49-17.77a1.35,1.35,0,0,0-1.56-.77l-8.12,2.15.55-1.12a.78.78,0,0,0-.38-1l-3.32-1.63a.79.79,0,0,0-1.06.33l-2.58,5.26-3.73,1A1.21,1.21,0,0,0,92.2,237l1.83.9-2.66,5.42c-2.65,5.4-.16,12,5.56,14.86l12.1,5.95,7.47-15.19,1.83.9A1.21,1.21,0,0,0,120,248.28ZM108.5,261.55a.17.17,0,0,1-.24.07l-7.69-3.77a4.07,4.07,0,1,1,3.56-7.25.19.19,0,0,0,.25-.08,4.28,4.28,0,1,1,7.68,3.78Z"/><path id="House-7" data-name="House" class="cls-2" d="M535.48,220.94,525.4,204.5a1.36,1.36,0,0,0-1.67-.52L516,207.33l.37-1.19a.78.78,0,0,0-.54-1l-3.53-1.11a.77.77,0,0,0-1,.48l-1.76,5.59-3.54,1.54a1.2,1.2,0,0,0,.2,2.27l1.95.61-1.82,5.77c-1.8,5.73,1.66,11.92,7.74,13.84L527,238.22l5.08-16.15,1.95.62A1.21,1.21,0,0,0,535.48,220.94Zm-9.39,14.86a.19.19,0,0,1-.23.11l-8.17-2.57a4.07,4.07,0,1,1,2.42-7.7.18.18,0,0,0,.23-.12,4.28,4.28,0,1,1,8.17,2.58Z"/><path id="House-8" data-name="House" class="cls-2" d="M511.7,379.58l2.85-19.07a1.34,1.34,0,0,0-.94-1.47l-8.05-2.39,1.05-.67a.77.77,0,0,0,.21-1.08l-2-3.12a.78.78,0,0,0-1.08-.27l-4.94,3.14-3.7-1.09a1.21,1.21,0,0,0-1.31,1.87l1.1,1.72-5.1,3.25c-5.06,3.22-6.4,10.2-3,15.58l7.25,11.37,14.27-9.09,1.1,1.72A1.2,1.2,0,0,0,511.7,379.58ZM495,384.92a.19.19,0,0,1-.25-.07l-4.6-7.22a4.07,4.07,0,1,1,6.81-4.34.17.17,0,0,0,.25.06,4.28,4.28,0,1,1,4.6,7.23Z"/><path id="House-9" data-name="House" class="cls-2" d="M132.7,399.58l2.85-19.07a1.34,1.34,0,0,0-.94-1.47l-8.05-2.39,1-.67a.77.77,0,0,0,.21-1.08l-2-3.12a.78.78,0,0,0-1.08-.27l-4.94,3.14-3.7-1.09a1.21,1.21,0,0,0-1.31,1.87l1.1,1.72-5.1,3.25c-5.06,3.22-6.4,10.2-3,15.58l7.25,11.37,14.27-9.09,1.1,1.72A1.2,1.2,0,0,0,132.7,399.58ZM116,404.92a.19.19,0,0,1-.25-.07l-4.6-7.22a4.07,4.07,0,1,1,6.81-4.34.17.17,0,0,0,.25.06,4.28,4.28,0,1,1,4.6,7.23Z"/><path id="House-10" data-name="House" class="cls-2" d="M307.76,79.18,291.67,68.54a1.35,1.35,0,0,0-1.73.23l-5.56,6.28-.16-1.23a.79.79,0,0,0-.9-.65l-3.67.48a.78.78,0,0,0-.69.86l.76,5.81-2.56,2.89a1.21,1.21,0,0,0,1.14,2l2-.27.79,6c.79,6,6.54,10.11,12.86,9.28l13.38-1.77-2.22-16.77,2-.27A1.21,1.21,0,0,0,307.76,79.18Zm-2.25,17.43a.17.17,0,0,1-.16.2l-8.49,1.12a4.07,4.07,0,1,1-1.05-8,.19.19,0,0,0,.16-.2,4.28,4.28,0,1,1,8.49-1.12Z"/><path id="House-11" data-name="House" class="cls-2" d="M102.55,495.21,91.7,479.26a1.33,1.33,0,0,0-1.68-.44l-7.53,3.7.31-1.2a.77.77,0,0,0-.58-.94l-3.57-.95a.79.79,0,0,0-1,.53l-1.49,5.66-3.47,1.71a1.21,1.21,0,0,0,.31,2.26l2,.52L73.45,496c-1.54,5.81,2.22,11.84,8.38,13.47l13,3.44,4.32-16.36,2,.52A1.2,1.2,0,0,0,102.55,495.21Zm-8.7,15.28a.17.17,0,0,1-.22.12l-8.28-2.19a4.07,4.07,0,1,1,2.06-7.8.18.18,0,0,0,.22-.13,4.29,4.29,0,1,1,8.29,2.19Z"/><path id="House-12" data-name="House" class="cls-2" d="M223.21,580.32l-19.07-2.8a1.35,1.35,0,0,0-1.47,1l-2.37,8-.67-1a.79.79,0,0,0-1.09-.21l-3.11,2a.77.77,0,0,0-.27,1.07l3.16,4.93L197.23,597a1.21,1.21,0,0,0,1.87,1.3l1.72-1.1,3.26,5.09c3.24,5.06,10.22,6.37,15.59,2.94L231,597.92l-9.12-14.25,1.72-1.1A1.21,1.21,0,0,0,223.21,580.32Zm5.38,16.74a.19.19,0,0,1-.06.25l-7.22,4.62a4.07,4.07,0,1,1-4.35-6.8.19.19,0,0,0,.06-.25,4.28,4.28,0,1,1,7.21-4.61Z"/><path id="House-13" data-name="House" class="cls-2" d="M499.58,567l-12-15.07a1.35,1.35,0,0,0-1.72-.31l-7.22,4.27.22-1.22a.78.78,0,0,0-.65-.89l-3.64-.67a.79.79,0,0,0-.93.6l-1.05,5.76-3.32,2a1.2,1.2,0,0,0,.47,2.23l2,.37L470.62,570c-1.08,5.91,3.13,11.63,9.4,12.78l13.27,2.43,3-16.65,2,.37A1.21,1.21,0,0,0,499.58,567Zm-7.49,15.9a.17.17,0,0,1-.21.14l-8.43-1.54a4.07,4.07,0,1,1,1.45-8,.19.19,0,0,0,.22-.13,4.28,4.28,0,1,1,8.42,1.54Z"/><path id="House-14" data-name="House" class="cls-2" d="M578.67,294.09l-18.47-5.54a1.34,1.34,0,0,0-1.59.72l-3.51,7.62-.51-1.14a.79.79,0,0,0-1.05-.36l-3.37,1.52a.79.79,0,0,0-.42,1l2.41,5.34-1.61,3.51a1.2,1.2,0,0,0,1.66,1.56l1.86-.84,2.49,5.51c2.47,5.48,9.18,7.79,15,5.17l12.29-5.54-7-15.43,1.86-.84A1.21,1.21,0,0,0,578.67,294.09Zm2.89,17.34a.19.19,0,0,1-.1.24l-7.81,3.52a4.07,4.07,0,1,1-3.32-7.36.17.17,0,0,0,.1-.23,4.29,4.29,0,1,1,7.81-3.53Z"/><path id="House-15" data-name="House" class="cls-2" d="M420.36,452.66l-18.65-4.91a1.34,1.34,0,0,0-1.56.77l-3.26,7.74-.55-1.12a.78.78,0,0,0-1-.33L392,456.45a.78.78,0,0,0-.39,1l2.59,5.26-1.49,3.56a1.2,1.2,0,0,0,1.71,1.5l1.83-.9,2.67,5.42c2.66,5.39,9.45,7.48,15.16,4.66l12.1-6-7.48-15.18,1.84-.9A1.21,1.21,0,0,0,420.36,452.66Zm3.47,17.24a.19.19,0,0,1-.09.24l-7.68,3.78a4.07,4.07,0,1,1-3.57-7.24.19.19,0,0,0,.09-.24,4.28,4.28,0,1,1,7.68-3.79Z"/><path id="Letters" class="cls-2" d="M289.27,480.38a4.56,4.56,0,0,0-2.5-.46,3.31,3.31,0,0,0,1-3.73q-1.4-3.57-7.39-1.22l-7.59,3,5.38,13.75,8-3.11a9.1,9.1,0,0,0,4.17-2.82,3.62,3.62,0,0,0,.39-3.63A3.28,3.28,0,0,0,289.27,480.38Zm-10.68-1,2.83-1.11a2.67,2.67,0,0,1,1.3-.25.87.87,0,0,1,.66.62c.27.68-.11,1.22-1.12,1.61l-2.89,1.13Zm7.21,5.29a3,3,0,0,1-1.34.85l-3,1.18-.94-2.41,3-1.16a3.35,3.35,0,0,1,1.59-.3,1.09,1.09,0,0,1,.81.74A1.14,1.14,0,0,1,285.8,484.68Zm8.8.6-5.39-13.76,5-1.94,3.83,9.77,7.39-2.9,1.1,4.17ZM294,498.1a4.31,4.31,0,0,0,1.16-2.23,5,5,0,0,0-.37-2.57q-1.85-4.71-8.34-2.18L279.1,494l5.38,13.76,4.62-1.81-1.64-4.2,2.37-.93L294,504l5.28-2.07ZM290,496.4a3.29,3.29,0,0,1-1.5.94l-2.39.94-1-2.66,2.43-.95a3.27,3.27,0,0,1,1.69-.32,1.19,1.19,0,0,1,.86.83A1.26,1.26,0,0,1,290,496.4Zm10.87,4.92-5.38-13.75,12.45-4.87,1.38,3.52-7.6,3,.61,1.54,7.2-2.81,1.37,3.5-7.2,2.82.65,1.66,8.07-3.16,1,3.68Z"/><path id="Letters-2" data-name="Letters" class="cls-2" d="M200.08,290.76a4.6,4.6,0,0,0-1.19-2.24,3.31,3.31,0,0,0,3.57-1.51q1.93-3.3-3.62-6.55l-7-4.12-7.47,12.75,7.38,4.31a8.92,8.92,0,0,0,4.8,1.53,3.65,3.65,0,0,0,3.09-1.94A3.27,3.27,0,0,0,200.08,290.76Zm-5.84-9,2.62,1.53a2.68,2.68,0,0,1,1,.87.87.87,0,0,1-.08.9c-.37.63-1,.67-2,.12l-2.68-1.57Zm.32,8.93a2.93,2.93,0,0,1-1.51-.52l-2.78-1.63,1.3-2.23,2.75,1.61a3.16,3.16,0,0,1,1.22,1.06,1.06,1.06,0,0,1-.08,1.09A1.1,1.1,0,0,1,194.56,290.7Zm5,7.28L207,285.23l4.6,2.7L206.31,297l6.85,4-2.59,3.45Zm-10.47,7.44a4.32,4.32,0,0,0,2.47-.47,5,5,0,0,0,1.78-1.88q2.56-4.38-3.45-7.9l-6.77-4L175.64,304l4.28,2.5,2.28-3.89,2.2,1.29.1,5.28,4.89,2.86ZM188,301.26a3.21,3.21,0,0,1-1.66-.59l-2.22-1.29,1.45-2.47,2.25,1.32a3.28,3.28,0,0,1,1.3,1.13,1.24,1.24,0,0,1-.12,1.19A1.25,1.25,0,0,1,188,301.26Zm2.88,11.59,7.46-12.75,11.54,6.75-1.91,3.27-7-4.12-.83,1.43,6.67,3.91-1.9,3.25-6.68-3.91-.9,1.54,7.48,4.37-2.28,3.05Z"/><path id="Letters-3" data-name="Letters" class="cls-2" d="M389.55,568.35a4.65,4.65,0,0,0-1.62-2,3.3,3.3,0,0,0,3.18-2.2q1.23-3.63-4.86-5.69l-7.72-2.61-4.74,14,8.09,2.74a9,9,0,0,0,5,.52,3.63,3.63,0,0,0,2.64-2.52A3.31,3.31,0,0,0,389.55,568.35ZM382,560.72l2.88,1a2.59,2.59,0,0,1,1.15.64.86.86,0,0,1,.11.9c-.23.69-.86.86-1.9.51l-2.93-1Zm2.11,8.69a2.85,2.85,0,0,1-1.58-.21l-3.06-1,.83-2.45,3,1a3.11,3.11,0,0,1,1.4.79,1.05,1.05,0,0,1,.15,1.09A1.12,1.12,0,0,1,384.12,569.41Zm6.35,6.12,4.73-14,5.06,1.71-3.36,9.94,7.52,2.55-1.84,3.89Zm-8.75,9.4a4.34,4.34,0,0,0,2.32-1,5,5,0,0,0,1.37-2.2q1.62-4.8-5-7L373,572.22l-4.73,14,4.7,1.59,1.45-4.27,2.41.81L378,589.5l5.37,1.82Zm-1.93-3.84a3.34,3.34,0,0,1-1.76-.25L375.6,580l.92-2.7,2.47.83a3.31,3.31,0,0,1,1.5.85,1.17,1.17,0,0,1,.12,1.19A1.25,1.25,0,0,1,379.79,581.09Zm5.15,10.76,4.74-14,12.66,4.29-1.22,3.58-7.72-2.61-.53,1.57,7.33,2.48L399,590.73l-7.33-2.48-.57,1.69,8.21,2.78-1.62,3.44Z"/><path id="Letters-4" data-name="Letters" class="cls-2" d="M449.55,249.35a4.65,4.65,0,0,0-1.62-1.95,3.3,3.3,0,0,0,3.18-2.2q1.23-3.63-4.86-5.69l-7.72-2.61-4.74,14,8.09,2.74a9,9,0,0,0,5,.52,3.63,3.63,0,0,0,2.64-2.52A3.31,3.31,0,0,0,449.55,249.35ZM442,241.72l2.88,1a2.59,2.59,0,0,1,1.15.64.86.86,0,0,1,.11.9c-.23.69-.86.86-1.9.51l-2.93-1Zm2.11,8.69a2.85,2.85,0,0,1-1.58-.21l-3.06-1,.83-2.45,3,1a3.11,3.11,0,0,1,1.4.79,1.05,1.05,0,0,1,.15,1.09A1.12,1.12,0,0,1,444.12,250.41Zm6.35,6.12,4.73-14,5.06,1.71-3.36,9.94,7.52,2.55-1.84,3.89Zm-8.75,9.4a4.34,4.34,0,0,0,2.32-1,5,5,0,0,0,1.37-2.2q1.62-4.8-5-7L433,253.22l-4.73,14,4.7,1.59,1.45-4.27,2.41.81L438,270.5l5.37,1.82Zm-1.93-3.84a3.34,3.34,0,0,1-1.76-.25L435.6,261l.92-2.7,2.47.83a3.31,3.31,0,0,1,1.5.85,1.17,1.17,0,0,1,.12,1.19A1.25,1.25,0,0,1,439.79,262.09Zm5.15,10.76,4.74-14,12.66,4.29-1.22,3.58-7.72-2.61-.53,1.57,7.33,2.48L459,271.73l-7.33-2.48-.57,1.69,8.21,2.78-1.62,3.44Z"/><path id="Letters-5" data-name="Letters" class="cls-2" d="M570.35,559a4.64,4.64,0,0,0-2.54-.09,3.29,3.29,0,0,0,.48-3.84q-1.89-3.33-7.48-.15l-7.09,4L561,571.81l7.43-4.22a9.15,9.15,0,0,0,3.73-3.39,3.64,3.64,0,0,0-.13-3.65A3.32,3.32,0,0,0,570.35,559Zm-10.72.56,2.65-1.51a2.59,2.59,0,0,1,1.25-.43.87.87,0,0,1,.74.51c.37.64.07,1.23-.88,1.76l-2.69,1.54Zm7.9,4.2a3,3,0,0,1-1.21,1l-2.8,1.59-1.28-2.25,2.77-1.57a3.06,3.06,0,0,1,1.52-.52,1.06,1.06,0,0,1,.91.61A1.13,1.13,0,0,1,567.53,563.78Zm8.79-.67L569,550.27l4.64-2.64,5.18,9.12,6.91-3.92,1.68,4Zm1.19,12.79a4.29,4.29,0,0,0,.83-2.38,4.87,4.87,0,0,0-.73-2.48q-2.5-4.41-8.57-1l-6.81,3.87,7.29,12.85,4.32-2.45-2.23-3.93,2.21-1.25,4.62,2.56,4.93-2.8Zm-4.15-1.12a3.3,3.3,0,0,1-1.35,1.15l-2.23,1.26-1.41-2.48,2.27-1.29a3.22,3.22,0,0,1,1.63-.55,1.17,1.17,0,0,1,1,.7A1.22,1.22,0,0,1,573.36,574.78Zm11.47,3.31-7.29-12.84,11.62-6.6,1.87,3.29-7.09,4,.81,1.44,6.73-3.82,1.86,3.27-6.73,3.82.88,1.55L595,568l1.49,3.5Z"/><path id="Letters-6" data-name="Letters" class="cls-2" d="M521,443.57a4.54,4.54,0,0,0-2.52-.33,3.31,3.31,0,0,0,.85-3.78q-1.56-3.49-7.44-.87l-7.44,3.32,6,13.49,7.8-3.49a9,9,0,0,0,4-3,3.64,3.64,0,0,0,.22-3.64A3.31,3.31,0,0,0,521,443.57Zm-10.72-.48,2.78-1.24a2.56,2.56,0,0,1,1.28-.31.87.87,0,0,1,.7.58c.29.67-.06,1.23-1,1.67l-2.83,1.26Zm7.45,4.94a2.9,2.9,0,0,1-1.3.92l-2.95,1.32-1.05-2.36,2.91-1.3a3.13,3.13,0,0,1,1.57-.37,1.05,1.05,0,0,1,.84.7A1.08,1.08,0,0,1,517.69,448Zm8.82.19-6-13.49,4.87-2.17,4.28,9.57,7.25-3.24,1.29,4.12Zm0,12.84a4.39,4.39,0,0,0,1.06-2.28,5,5,0,0,0-.49-2.55q-2.07-4.62-8.44-1.79l-7.16,3.2,6,13.49,4.53-2L520.15,465l2.32-1,4.36,3,5.17-2.32Zm-4-1.51a3.36,3.36,0,0,1-1.46,1l-2.34,1.05L517.48,459l2.38-1.06a3.26,3.26,0,0,1,1.68-.4,1.17,1.17,0,0,1,.89.79A1.23,1.23,0,0,1,522.44,459.55Zm11.09,4.4-6-13.49,12.2-5.44,1.55,3.45-7.45,3.33.68,1.51,7.06-3.16,1.54,3.44L536,456.74l.73,1.63,7.91-3.53,1.15,3.63Z"/><path id="Letters-7" data-name="Letters" class="cls-2" d="M345.27,163.38a4.56,4.56,0,0,0-2.5-.46,3.31,3.31,0,0,0,1-3.73q-1.4-3.57-7.39-1.22l-7.59,3,5.38,13.75,8-3.11a9.1,9.1,0,0,0,4.17-2.82,3.62,3.62,0,0,0,.39-3.63A3.28,3.28,0,0,0,345.27,163.38Zm-10.68-1,2.83-1.11a2.67,2.67,0,0,1,1.3-.25.87.87,0,0,1,.66.62c.27.68-.11,1.22-1.12,1.61l-2.89,1.13Zm7.21,5.29a3,3,0,0,1-1.34.85l-3,1.18-.94-2.41,3-1.16a3.35,3.35,0,0,1,1.59-.3,1.09,1.09,0,0,1,.81.74A1.14,1.14,0,0,1,341.8,167.68Zm8.8.6-5.39-13.76,5-1.94,3.83,9.77,7.39-2.9,1.1,4.17ZM350,181.1a4.31,4.31,0,0,0,1.16-2.23,5,5,0,0,0-.37-2.57q-1.85-4.71-8.34-2.18L335.1,177l5.38,13.76,4.62-1.81-1.64-4.2,2.37-.93L350,187l5.28-2.07ZM346,179.4a3.29,3.29,0,0,1-1.5.94l-2.39.94-1-2.66,2.43-1a3.27,3.27,0,0,1,1.69-.32,1.19,1.19,0,0,1,.86.83A1.26,1.26,0,0,1,346,179.4Zm10.87,4.92-5.38-13.75,12.45-4.87,1.38,3.52-7.6,3,.61,1.54,7.2-2.81,1.37,3.5-7.2,2.82.65,1.66,8.07-3.16,1,3.68Z"/><path id="Letters-8" data-name="Letters" class="cls-2" d="M518,125.44a4.57,4.57,0,0,0-1.49-2,3.29,3.29,0,0,0,3.31-2q1.45-3.54-4.5-6l-7.55-3.09L502.2,126l7.91,3.24a9,9,0,0,0,5,.83,3.59,3.59,0,0,0,2.78-2.36A3.28,3.28,0,0,0,518,125.44Zm-7-8.08,2.81,1.15a2.69,2.69,0,0,1,1.12.72.86.86,0,0,1,.05.9c-.27.68-.92.81-1.93.4l-2.87-1.18Zm1.57,8.8a2.82,2.82,0,0,1-1.56-.3l-3-1.22,1-2.4,2.95,1.21a3.1,3.1,0,0,1,1.35.88,1.07,1.07,0,0,1,.08,1.09A1.09,1.09,0,0,1,512.54,126.16Zm6,6.51L524.09,119l4.94,2-4,9.7,7.35,3-2.08,3.78Zm-9.32,8.84a4.29,4.29,0,0,0,2.38-.82,5,5,0,0,0,1.5-2.11q1.92-4.7-4.53-7.33l-7.26-3L495.68,142l4.6,1.88,1.7-4.17,2.36,1,.84,5.22,5.25,2.14Zm-1.69-4a3.32,3.32,0,0,1-1.73-.35l-2.37-1,1.08-2.64,2.41,1a3.42,3.42,0,0,1,1.45.94,1.23,1.23,0,0,1,.05,1.2A1.26,1.26,0,0,1,507.49,137.55ZM512,148.61l5.59-13.67L529.94,140l-1.44,3.51L521,140.42l-.63,1.53,7.16,2.93-1.42,3.49-7.16-2.93-.68,1.64,8,3.28-1.84,3.34Z"/><path id="Letters-9" data-name="Letters" class="cls-2" d="M78.33,595.32a4.63,4.63,0,0,0-1.68-1.91,3.29,3.29,0,0,0,3.13-2.29q1.13-3.64-5-5.54L67,583.18,62.62,597.3l8.17,2.51a9.05,9.05,0,0,0,5,.39,3.64,3.64,0,0,0,2.56-2.6A3.29,3.29,0,0,0,78.33,595.32Zm-7.76-7.41,2.91.89a2.71,2.71,0,0,1,1.18.61.88.88,0,0,1,.13.9c-.21.7-.84.88-1.88.56l-3-.91Zm2.36,8.62a2.93,2.93,0,0,1-1.58-.16l-3.09-1L69,593l3,.93a3.12,3.12,0,0,1,1.42.76,1.07,1.07,0,0,1,.18,1.08A1.11,1.11,0,0,1,72.93,596.53Zm6.52,5.94,4.34-14.12,5.1,1.57-3.08,10,7.59,2.33-1.73,4ZM71,612.11a4.26,4.26,0,0,0,2.29-1,5,5,0,0,0,1.31-2.24q1.49-4.85-5.18-6.9l-7.49-2.3-4.34,14.12,4.75,1.46,1.32-4.31,2.43.74,1.31,5.12,5.42,1.67Zm-2-3.78a3.41,3.41,0,0,1-1.76-.2l-2.45-.75.84-2.73,2.49.76a3.43,3.43,0,0,1,1.53.81,1.2,1.2,0,0,1,.15,1.18A1.26,1.26,0,0,1,68.93,608.33Zm5.46,10.61,4.34-14.12,12.77,3.93-1.11,3.62L82.6,610l-.49,1.58,7.4,2.28-1.11,3.6L81,615.15l-.53,1.7,8.29,2.55-1.53,3.49Z"/><path id="Letters-10" data-name="Letters" class="cls-2" d="M181.2,488.15a4.51,4.51,0,0,0-2.54,0,3.3,3.3,0,0,0,.38-3.85q-2-3.28-7.48,0l-7,4.2,7.61,12.66,7.33-4.4a9.07,9.07,0,0,0,3.64-3.48,3.66,3.66,0,0,0-.23-3.65A3.26,3.26,0,0,0,181.2,488.15Zm-10.7.82,2.61-1.57a2.68,2.68,0,0,1,1.24-.47.87.87,0,0,1,.75.5c.38.63.1,1.22-.83,1.78l-2.66,1.6Zm8,4a2.92,2.92,0,0,1-1.18,1.07l-2.77,1.67-1.33-2.22,2.73-1.64a3.07,3.07,0,0,1,1.51-.56,1,1,0,0,1,.92.59A1.09,1.09,0,0,1,178.5,493Zm8.77-.88-7.61-12.66,4.57-2.75,5.41,9,6.81-4.1,1.78,3.93Zm1.51,12.75a4.27,4.27,0,0,0,.77-2.4,4.89,4.89,0,0,0-.79-2.46q-2.61-4.35-8.59-.75l-6.72,4,7.61,12.66,4.26-2.56L183,509.5l2.18-1.31,4.69,2.45,4.85-2.92Zm-4.18-1a3.33,3.33,0,0,1-1.32,1.18l-2.19,1.32-1.48-2.45,2.24-1.34a3.31,3.31,0,0,1,1.62-.6,1.19,1.19,0,0,1,1,.67A1.25,1.25,0,0,1,184.6,503.83Zm11.55,3-7.61-12.66L200,487.31l1.95,3.24-7,4.2.85,1.42,6.63-4,1.94,3.23-6.63,4,.92,1.52,7.43-4.47,1.57,3.47Z"/><path id="Letters-11" data-name="Letters" class="cls-2" d="M60.94,338.43a4.55,4.55,0,0,0-1.51-2,3.3,3.3,0,0,0,3.29-2c1-2.37-.58-4.35-4.56-5.93l-7.58-3-5.45,13.73,7.94,3.15a9,9,0,0,0,5,.79,3.65,3.65,0,0,0,2.76-2.39A3.27,3.27,0,0,0,60.94,338.43Zm-7.13-8,2.82,1.12a2.67,2.67,0,0,1,1.13.7.91.91,0,0,1,.06.91c-.27.68-.91.81-1.92.41L53,332.42Zm1.66,8.78a2.93,2.93,0,0,1-1.57-.29l-3-1.19,1-2.4,3,1.18a3.11,3.11,0,0,1,1.36.86,1,1,0,0,1,.09,1.09A1.11,1.11,0,0,1,55.47,339.2Zm6,6.45,5.45-13.73,5,2L68,343.64l7.39,2.93-2,3.79Zm-9.22,8.93a4.32,4.32,0,0,0,2.37-.84,4.94,4.94,0,0,0,1.48-2.13q1.88-4.71-4.61-7.28l-7.29-2.9-5.45,13.73L43.39,357l1.66-4.19,2.37.94.89,5.21L53.58,361Zm-1.73-3.94a3.39,3.39,0,0,1-1.74-.33l-2.38-.95,1-2.65,2.42,1a3.23,3.23,0,0,1,1.46.92,1.2,1.2,0,0,1,.06,1.2A1.23,1.23,0,0,1,50.54,350.64Zm4.59,11,5.46-13.73L73,352.86l-1.4,3.52-7.58-3-.61,1.54,7.19,2.86-1.39,3.5L62,358.41l-.65,1.65,8.05,3.2-1.8,3.36Z"/><path id="Letters-12" data-name="Letters" class="cls-2" d="M415.56,68.45a4.57,4.57,0,0,0-2.23-1.21A3.31,3.31,0,0,0,415.47,64c-.14-2.55-2.36-3.7-6.64-3.46l-8.14.46.83,14.75,8.53-.48a9,9,0,0,0,4.85-1.38,3.63,3.63,0,0,0,1.5-3.33A3.27,3.27,0,0,0,415.56,68.45Zm-9.84-4.26,3-.17a2.62,2.62,0,0,1,1.31.16.87.87,0,0,1,.44.79c0,.73-.48,1.13-1.57,1.19l-3.1.18Zm5.21,7.27a3.1,3.1,0,0,1-1.55.4l-3.22.18L406,69.45l3.18-.17a2.92,2.92,0,0,1,1.59.21,1,1,0,0,1,.54,1A1.13,1.13,0,0,1,410.93,71.46Zm8.17,3.31L418.27,60l5.33-.3.59,10.47,7.93-.44-.26,4.3Zm-4.61,12a4.31,4.31,0,0,0,1.8-1.76,4.93,4.93,0,0,0,.44-2.55q-.28-5.06-7.24-4.67l-7.83.44L402.49,93l5-.28-.26-4.5,2.54-.14,3,4.34,5.66-.32Zm-3.23-2.84a3.33,3.33,0,0,1-1.71.43l-2.56.14-.16-2.85,2.6-.15a3.26,3.26,0,0,1,1.71.23,1.2,1.2,0,0,1,.56,1.06A1.24,1.24,0,0,1,411.26,83.91ZM420.07,92l-.83-14.75,13.34-.75.21,3.78-8.14.46.1,1.65,7.72-.43.21,3.76-7.72.43.1,1.78,8.65-.49-.22,3.81Z"/><path id="Letters-13" data-name="Letters" class="cls-2" d="M190.77,65.7a4.59,4.59,0,0,0-2.52-.27,3.3,3.3,0,0,0,.74-3.8q-1.67-3.45-7.46-.66l-7.34,3.53,6.4,13.31,7.7-3.7a9,9,0,0,0,4-3.12,3.63,3.63,0,0,0,.11-3.65A3.21,3.21,0,0,0,190.77,65.7Zm-10.72-.18,2.74-1.32a2.67,2.67,0,0,1,1.28-.35.87.87,0,0,1,.7.57c.32.66,0,1.22-1,1.69L181,67.46Zm7.59,4.73a2.91,2.91,0,0,1-1.28,1l-2.91,1.4-1.12-2.33,2.87-1.38a3.21,3.21,0,0,1,1.56-.41,1,1,0,0,1,.86.67A1.11,1.11,0,0,1,187.64,70.25Zm8.81-.06-6.4-13.32,4.81-2.31L199.41,64l7.16-3.44L208,64.65ZM196.77,83a4.26,4.26,0,0,0,1-2.31,4.93,4.93,0,0,0-.56-2.53q-2.2-4.58-8.48-1.55L181.65,80l6.4,13.31,4.48-2.15-2-4.06,2.3-1.11,4.43,2.88,5.11-2.46Zm-4.07-1.39a3.28,3.28,0,0,1-1.42,1.05L189,83.79l-1.24-2.57,2.35-1.13a3.27,3.27,0,0,1,1.67-.45,1.19,1.19,0,0,1,.92.76A1.26,1.26,0,0,1,192.7,81.63Zm11.22,4.08-6.4-13.31,12-5.79L211.2,70l-7.34,3.53.72,1.5,7-3.36,1.63,3.4-7,3.35L207,80l7.81-3.75,1.25,3.6Z"/><path id="Letters-14" data-name="Letters" class="cls-2" d="M351.77,335.7a4.63,4.63,0,0,0-2.53-.26,3.29,3.29,0,0,0,.74-3.8q-1.67-3.45-7.46-.66l-7.34,3.54,6.41,13.31,7.7-3.71a9.1,9.1,0,0,0,3.95-3.13,3.63,3.63,0,0,0,.11-3.65A3.28,3.28,0,0,0,351.77,335.7ZM341,335.53l2.74-1.32a2.67,2.67,0,0,1,1.28-.35.9.9,0,0,1,.71.56c.32.66,0,1.23-1,1.7L342,337.47Zm7.59,4.72a2.87,2.87,0,0,1-1.27,1l-2.91,1.4-1.12-2.33,2.87-1.38a3.13,3.13,0,0,1,1.56-.42,1.07,1.07,0,0,1,.86.68A1.09,1.09,0,0,1,348.63,340.25Zm8.82-.06L351,326.88l4.81-2.32L360.4,334l7.16-3.45,1.41,4.08Zm.33,12.83a4.26,4.26,0,0,0,1-2.31,5,5,0,0,0-.57-2.53q-2.19-4.57-8.48-1.54l-7.06,3.4,6.41,13.31,4.47-2.16-2-4.06,2.29-1.1,4.43,2.86,5.11-2.46Zm-4.07-1.39a3.28,3.28,0,0,1-1.42,1.05L350,353.79l-1.24-2.57,2.35-1.13a3.25,3.25,0,0,1,1.67-.45,1.19,1.19,0,0,1,.91.77A1.24,1.24,0,0,1,353.71,351.63Zm11.22,4.08-6.41-13.31,12-5.8L372.2,340l-7.34,3.54.72,1.49,7-3.36,1.63,3.39-7,3.36L368,350l7.81-3.76,1.25,3.6Z"/><path id="Letters-15" data-name="Letters" class="cls-2" d="M107.63,136.26a4.59,4.59,0,0,0-1.84-1.75A3.3,3.3,0,0,0,108.7,132q.8-3.73-5.5-5.08l-8-1.69-3.07,14.45,8.36,1.77a9,9,0,0,0,5-.06,3.65,3.65,0,0,0,2.32-2.82A3.24,3.24,0,0,0,107.63,136.26Zm-8.38-6.69,3,.63a2.6,2.6,0,0,1,1.23.5.88.88,0,0,1,.21.88c-.15.72-.76,1-1.82.73l-3-.64Zm3.12,8.38a3.06,3.06,0,0,1-1.6,0l-3.15-.67.53-2.53,3.12.66a3.12,3.12,0,0,1,1.48.62,1.07,1.07,0,0,1,.28,1.06A1.13,1.13,0,0,1,102.37,138Zm7,5.33,3.06-14.44,5.22,1.1-2.18,10.26,7.78,1.65-1.38,4.09Zm-7.59,10.36a4.31,4.31,0,0,0,2.19-1.23,4.87,4.87,0,0,0,1.1-2.34q1.05-5-5.77-6.41L91.65,142l-3.06,14.45,4.86,1,.93-4.42,2.49.53,1.76,5,5.54,1.18Zm-2.37-3.59a3.21,3.21,0,0,1-1.77,0l-2.51-.53.59-2.79,2.55.54a3.26,3.26,0,0,1,1.59.67,1.19,1.19,0,0,1,.27,1.16A1.26,1.26,0,0,1,99.43,150.05Zm6.38,10.09,3.07-14.45L122,148.46l-.79,3.71-8-1.7-.34,1.62,7.56,1.61-.78,3.68-7.57-1.6-.36,1.74,8.48,1.8L119,162.93Z"/></g></g></svg>
